#!OML:ASF F:\VICON\USERDATA\INSTALL\rory3\rory3.ASF
:FULLY-SPECIFIED
:DEGREES
393
root 4.94439 16.699 2.41533 8.38179 -12.1436 -8.73558
lowerback 15.3903 -0.687783 4.40879
upperback 3.77516 -0.125176 2.22308
thorax -4.6161 -0.109598 -0.124224
lowerneck -16.0984 -0.684206 -1.79638
upperneck 36.8762 -0.189717 -1.07846
head 15.7424 -0.551187 -0.196152
rclavicle 4.96962e-015 9.93923e-015
rhumerus -42.0805 6.48831 -45.2351
rradius 43.1602
rwrist 12.4463
rhand -20.6704 -44.7013
rfingers 7.12502
rthumb 5.69257 -74.6048
lclavicle 4.96962e-015 9.93923e-015
lhumerus -30.0171 0.465081 43.7118
lradius 27.0273
lwrist 8.17346
lhand -22.8508 -30.1512
lfingers 7.12502
lthumb 3.58718 -0.201675
rfemur -102.149 3.38905 26.6059
rtibia 106.017
rfoot 48.8478 7.03612
rtoes -6.08822
lfemur -30.9022 2.96829 -21.4173
ltibia 48.2573
lfoot -22.7082 8.10362
ltoes 17.7304
394
root 4.93978 16.6813 2.40345 8.45682 -12.2023 -8.87726
lowerback 15.6751 -0.801148 4.26605
upperback 3.89159 -0.283951 2.24479
thorax -4.65142 -0.186295 0.0115497
lowerneck -16.7291 -0.534574 -1.46117
upperneck 36.9094 -0.00735235 -1.22888
head 15.9096 -0.452222 -0.291551
rclavicle 1.39149e-014 -8.74653e-015
rhumerus -41.5897 6.01453 -44.7605
rradius 42.7363
rwrist 12.4963
rhand -20.8658 -44.4182
rfingers 7.12502
rthumb 5.50388 -74.3268
lclavicle 1.39149e-014 -8.74653e-015
lhumerus -30.2401 0.734387 42.9249
lradius 26.727
lwrist 8.15017
lhand -23.4691 -30.9999
lfingers 7.12502
lthumb 2.9901 -1.04109
rfemur -102.468 3.63481 26.786
rtibia 105.698
rfoot 48.6774 7.15459
rtoes -5.83315
lfemur -31.1772 3.22069 -21.2644
ltibia 48.5167
lfoot -22.7772 7.9043
ltoes 17.4947
395
root 4.93682 16.6651 2.39761 8.41278 -12.2451 -9.02507
lowerback 15.986 -0.633492 4.51162
upperback 3.57051 0.0194949 2.38229
thorax -5.15081 -0.0501257 -0.0355155
lowerneck -15.636 -0.717451 -2.05524
upperneck 36.7774 -0.204469 -0.984157
head 15.584 -0.578937 -0.109304
rclavicle 1.2921e-014 -5.40694e-014
rhumerus -42.5135 5.99008 -43.7168
rradius 42.4692
rwrist 12.4564
rhand -21.1246 -44.0095
rfingers 7.12502
rthumb 5.25403 -73.9244
lclavicle 1.2921e-014 -5.40694e-014
lhumerus -30.7647 0.0232842 42.8336
lradius 26.7971
lwrist 8.08553
lhand -23.8972 -31.2279
lfingers 7.12502
lthumb 2.57662 -1.26368
rfemur -102.643 3.81667 26.9085
rtibia 105.599
rfoot 48.9947 5.8872
rtoes -3.36307
lfemur -31.2889 3.45208 -21.1094
ltibia 48.7632
lfoot -22.8171 7.72824
ltoes 17.1232
396
root 4.93955 16.6559 2.40439 8.2357 -12.2629 -8.80206
lowerback 16.1111 -0.642213 4.3718
upperback 3.64863 -0.0163717 2.28815
thorax -5.13669 -0.0654267 -0.0488737
lowerneck -15.6773 -0.688411 -1.87287
upperneck 36.6814 -0.160869 -1.13901
head 15.5452 -0.555709 -0.199299
rclavicle -1.60022e-014 -2.46493e-014
rhumerus -42.5554 5.74343 -43.1234
rradius 42.0941
rwrist 12.3849
rhand -21.5932 -43.6716
rfingers 7.12502
rthumb 4.80159 -73.5972
lclavicle -1.60022e-014 -2.46493e-014
lhumerus -31.1331 0.367873 42.1105
lradius 26.9774
lwrist 7.95655
lhand -23.7939 -31.1283
lfingers 7.12502
lthumb 2.67645 -1.16533
rfemur -102.806 3.73618 26.7085
rtibia 105.634
rfoot 49.0117 5.84274
rtoes -2.28035
lfemur -31.2002 3.5439 -21.3908
ltibia 48.9417
lfoot -22.9183 7.68238
ltoes 16.8991
397
root 4.94594 16.6478 2.40916 8.02484 -12.1628 -8.48609
lowerback 16.342 -0.67126 4.21201
upperback 3.70447 -0.0738502 2.20897
thorax -5.20406 -0.0923856 -0.0295076
lowerneck -15.5593 -0.711886 -1.76103
upperneck 36.4853 -0.151609 -1.36143
head 15.4204 -0.564392 -0.309135
rclavicle 4.41302e-014 -2.78299e-015
rhumerus -42.7291 5.53083 -42.466
rradius 42.1334
rwrist 11.9347
rhand -21.4959 -44.2657
rfingers 7.12502
rthumb 4.89558 -74.1891
lclavicle 4.41302e-014 -2.78299e-015
lhumerus -31.2836 0.552169 41.5074
lradius 26.9863
lwrist 8.21509
lhand -23.2894 -30.8273
lfingers 7.12502
lthumb 3.16359 -0.871047
rfemur -102.955 3.47435 26.4967
rtibia 105.642
rfoot 48.906 6.53419
rtoes -3.80907
lfemur -31.1003 3.5542 -21.7791
ltibia 49.1088
lfoot -23.043 7.60434
ltoes 16.7633
398
root 4.95008 16.633 2.40142 7.93021 -11.9905 -8.43791
lowerback 16.661 -0.743637 4.27382
upperback 3.7244 -0.139874 2.20659
thorax -5.35692 -0.127598 -0.0504205
lowerneck -15.4376 -0.714753 -1.90079
upperneck 36.3317 -0.152453 -1.25873
head 15.3172 -0.567516 -0.23859
rclavicle 1.07344e-014 4.77083e-014
rhumerus -42.8304 5.27156 -41.8102
rradius 42.231
rwrist 11.211
rhand -20.6935 -45.2034
rfingers 7.12502
rthumb 5.6703 -75.1075
lclavicle 1.07344e-014 4.77083e-014
lhumerus -31.3345 0.401872 41.0012
lradius 26.9655
lwrist 8.81877
lhand -22.9979 -30.1702
lfingers 7.12502
lthumb 3.4451 -0.21831
rfemur -103.18 3.26918 26.5264
rtibia 105.698
rfoot 48.7827 6.46373
rtoes -5.38835
lfemur -31.1799 3.54426 -21.855
ltibia 49.3337
lfoot -23.0929 7.51215
ltoes 16.6964
399
root 4.94941 16.6133 2.38923 7.92916 -11.8507 -8.4804
lowerback 16.7561 -0.792569 4.40638
upperback 3.81977 -0.18072 2.19844
thorax -5.30765 -0.14778 -0.125228
lowerneck -15.5101 -0.708367 -1.94113
upperneck 36.2184 -0.145296 -1.20728
head 15.2793 -0.561085 -0.207552
rclavicle -3.46879e-014 2.3059e-014
rhumerus -42.9021 4.90314 -41.1576
rradius 42.0668
rwrist 10.8128
rhand -20.3005 -45.3613
rfingers 7.12502
rthumb 6.04973 -75.2549
lclavicle -3.46879e-014 2.3059e-014
lhumerus -31.3426 0.334034 40.4419
lradius 26.9393
lwrist 8.98915
lhand -22.8323 -29.8959
lfingers 7.12502
lthumb 3.60507 0.053368
rfemur -103.52 3.15572 26.6083
rtibia 105.896
rfoot 48.6823 5.52078
rtoes -4.51811
lfemur -31.4169 3.52495 -21.8072
ltibia 49.6327
lfoot -23.1098 7.47012
ltoes 16.6513
400
root 4.94764 16.5966 2.37668 7.93563 -11.7251 -8.57817
lowerback 16.8543 -0.838245 4.56405
upperback 3.87305 -0.209052 2.21399
thorax -5.30455 -0.163033 -0.191157
lowerneck -15.4846 -0.690306 -1.82563
upperneck 36.1698 -0.0898482 -1.38358
head 15.2494 -0.54553 -0.292043
rclavicle -9.44227e-015 2.34566e-014
rhumerus -43.117 4.58873 -40.4904
rradius 41.9884
rwrist 10.6893
rhand -20.2559 -45.5489
rfingers 7.12502
rthumb 6.09279 -75.4413
lclavicle -9.44227e-015 2.34566e-014
lhumerus -31.5612 0.291803 39.8746
lradius 26.9524
lwrist 8.79716
lhand -22.6185 -29.7874
lfingers 7.12502
lthumb 3.81153 0.15822
rfemur -103.744 3.13491 26.8209
rtibia 105.78
rfoot 48.9752 5.01716
rtoes -3.43008
lfemur -31.6821 3.49149 -21.6778
ltibia 49.9575
lfoot -23.158 7.38483
ltoes 16.5415
401
root 4.94804 16.5814 2.36825 7.90769 -11.5949 -8.62855
lowerback 17.0957 -0.915953 4.64517
upperback 3.8604 -0.279047 2.23425
thorax -5.45052 -0.200656 -0.197611
lowerneck -15.5828 -0.720397 -1.97855
upperneck 36.3604 -0.136825 -1.23724
head 15.3661 -0.56874 -0.213966
rclavicle 7.95139e-015 -2.98177e-014
rhumerus -43.3284 4.44332 -39.8834
rradius 42.0166
rwrist 10.597
rhand -20.272 -45.8329
rfingers 7.12502
rthumb 6.07721 -75.7258
lclavicle 7.95139e-015 -2.98177e-014
lhumerus -31.9998 0.195813 39.3284
lradius 27.0771
lwrist 8.60613
lhand -22.8306 -30.3176
lfingers 7.12502
lthumb 3.60665 -0.368394
rfemur -103.97 3.07212 26.9812
rtibia 105.71
rfoot 49.2427 5.23264
rtoes -3.92271
lfemur -31.8482 3.44289 -21.612
ltibia 50.226
lfoot -23.2841 7.27244
ltoes 16.3891
402
root 4.94715 16.5708 2.35921 7.82837 -11.4557 -8.61064
lowerback 17.4307 -0.962998 4.62294
upperback 3.90385 -0.324284 2.23997
thorax -5.58565 -0.2243 -0.165537
lowerneck -16.0755 -0.795861 -2.0833
upperneck 36.6485 -0.258629 -1.07442
head 15.6263 -0.615151 -0.152956
rclavicle -1.09332e-015 -1.31198e-014
rhumerus -43.3983 4.21401 -39.3056
rradius 41.8702
rwrist 10.6691
rhand -20.1576 -45.8556
rfingers 7.12502
rthumb 6.18768 -75.7453
lclavicle -1.09332e-015 -1.31198e-014
lhumerus -32.171 0.157465 38.8155
lradius 27.0704
lwrist 8.44707
lhand -23.3552 -31.3949
lfingers 7.12502
lthumb 3.10006 -1.43766
rfemur -104.154 2.99844 27.0799
rtibia 105.637
rfoot 49.3311 6.44767
rtoes -5.93401
lfemur -31.9197 3.37614 -21.6098
ltibia 50.4202
lfoot -23.3572 7.19754
ltoes 16.1931
403
root 4.94506 16.5664 2.35102 7.69235 -11.3623 -8.48684
lowerback 17.6884 -0.946394 4.53611
upperback 4.01689 -0.309103 2.20734
thorax -5.60211 -0.215267 -0.152719
lowerneck -16.5202 -0.826513 -1.95265
upperneck 36.6731 -0.293295 -1.17175
head 15.7447 -0.624388 -0.226347
rclavicle -2.78299e-015 -7.55382e-015
rhumerus -43.4031 3.79671 -38.6742
rradius 41.4774
rwrist 10.8689
rhand -19.984 -45.9382
rfingers 7.12502
rthumb 6.35523 -75.8229
lclavicle -2.78299e-015 -7.55382e-015
lhumerus -32.0568 -0.0755806 38.3855
lradius 27.0296
lwrist 8.54659
lhand -23.5994 -31.5672
lfingers 7.12502
lthumb 2.8642 -1.60673
rfemur -104.258 2.92921 27.0347
rtibia 105.649
rfoot 49.3615 6.81652
rtoes -6.18075
lfemur -31.9197 3.31731 -21.7112
ltibia 50.5744
lfoot -23.3476 7.14308
ltoes 16.1833
404
root 4.945 16.5586 2.34923 7.5976 -11.2932 -8.41895
lowerback 17.7959 -0.919834 4.60682
upperback 3.70576 -0.236914 2.22209
thorax -5.99143 -0.189533 -0.188346
lowerneck -15.1684 -0.871828 -2.18532
upperneck 36.3218 -0.356323 -1.10803
head 15.2516 -0.669043 -0.157494
rclavicle -2.10712e-014 2.0276e-014
rhumerus -44.1536 4.21755 -37.9357
rradius 41.2093
rwrist 10.7144
rhand -20.1673 -46.3094
rfingers 7.12502
rthumb 6.1783 -76.1993
lclavicle -2.10712e-014 2.0276e-014
lhumerus -32.6484 -1.01223 38.0156
lradius 27.2834
lwrist 8.73815
lhand -23.384 -31.2548
lfingers 7.12502
lthumb 3.07227 -1.29718
rfemur -104.417 2.84275 26.9905
rtibia 105.781
rfoot 49.4355 6.06239
rtoes -4.86326
lfemur -31.9323 3.36129 -21.7825
ltibia 50.7409
lfoot -23.3964 7.02873
ltoes 16.1837
405
root 4.94642 16.5456 2.34669 7.66248 -11.2314 -8.59737
lowerback 17.8368 -0.960153 4.84703
upperback 3.65509 -0.235563 2.29037
thorax -6.06797 -0.194178 -0.25024
lowerneck -14.8737 -0.893024 -2.39007
upperneck 36.1522 -0.363245 -1.02825
head 15.102 -0.686641 -0.0855896
rclavicle -1.0635e-014 -2.78299e-015
rhumerus -44.3676 4.47824 -37.3663
rradius 41.0482
rwrist 10.0058
rhand -20.2852 -46.7837
rfingers 7.12502
rthumb 6.06447 -76.6769
lclavicle -1.0635e-014 -2.78299e-015
lhumerus -32.98 -0.946163 37.4164
lradius 27.381
lwrist 8.66595
lhand -23.3043 -31.284
lfingers 7.12502
lthumb 3.14922 -1.32748
rfemur -104.646 2.84873 27.1731
rtibia 105.823
rfoot 49.5344 5.29248
rtoes -3.58377
lfemur -32.1209 3.46243 -21.6102
ltibia 50.9484
lfoot -23.4502 6.92379
ltoes 16.041
406
root 4.94806 16.5356 2.34206 7.72959 -11.2408 -8.68795
lowerback 17.9641 -0.995619 4.88547
upperback 3.81689 -0.272989 2.32412
thorax -5.96364 -0.209847 -0.227672
lowerneck -15.5487 -0.850613 -2.26427
upperneck 36.1604 -0.257991 -1.17599
head 15.2636 -0.645964 -0.155756
rclavicle 1.45113e-014 -4.13472e-014
rhumerus -44.1996 4.45498 -36.9527
rradius 41.0615
rwrist 9.23929
rhand -20.1432 -47.2797
rfingers 7.12502
rthumb 6.20158 -77.1689
lclavicle 1.45113e-014 -4.13472e-014
lhumerus -32.9964 -0.461064 36.7575
lradius 27.3445
lwrist 8.8116
lhand -23.3411 -30.9329
lfingers 7.12502
lthumb 3.11365 -0.97588
rfemur -104.862 2.92497 27.2989
rtibia 105.755
rfoot 49.7689 5.22307
rtoes -2.4993
lfemur -32.3263 3.56136 -21.5334
ltibia 51.132
lfoot -23.4773 6.84988
ltoes 16.1611
